<?xml version="1.0" encoding="UTF-8"?>
<svg version="1.1" viewBox="0 0 744.09 1052.4" xmlns="http://www.w3.org/2000/svg" xmlns:cc="http://creativecommons.org/ns#" xmlns:dc="http://purl.org/dc/elements/1.1/" xmlns:rdf="http://www.w3.org/1999/02/22-rdf-syntax-ns#">
<metadata>
<rdf:RDF>
<cc:Work rdf:about="">
<dc:format>image/svg+xml</dc:format>
<dc:type rdf:resource="http://purl.org/dc/dcmitype/StillImage"/>
<dc:title/>
</cc:Work>
</rdf:RDF>
</metadata>
<g fill="#231f20">
<path d="m263.93 411.07c-0.2125 1.375-1.5 2.3-2.8625 2.0875s-2.3-1.5-2.075-2.8625c0.2125-1.3625 1.5-2.3 2.8625-2.0875 1.3625 0.225 2.3 1.5 2.075 2.8625m-36.35 10.088c-0.1625 1-0.8875 1.7625-1.8125 2.0125-0.1 0.0375-0.2125 0.0625-0.3125 0.075-0.1125 0.0125-0.225 0.025-0.3375 0.025-0.1375 0-0.275-0.0125-0.4125-0.0375-0.75-0.1125-1.3625-0.5625-1.7375-1.1625-0.3-0.4875-0.4375-1.0875-0.3375-1.7 0.1625-1 0.8875-1.7625 1.8-2.025 0.1625-0.0375 0.3125-0.0625 0.475-0.0875h0.1625c0.1375 0 0.275 0.0125 0.425 0.025 1.375 0.225 2.3 1.5 2.0875 2.875m34.988-17.438c-2.7375-0.4375-5.3625 0.7625-6.8625 2.875l-26.512 8.4125c-0.8625-0.6125-1.875-1.0375-2.9875-1.2125-0.425-0.0625-0.8375-0.0875-1.2625-0.0625-0.05-0.0125-0.1125 0-0.1625 0-0.975 0.025-1.9125 0.275-2.7625 0.6875-3.85-2.425-7.0125-5.225-9.0875-8.7625-2.875-8.3125-11.062-10.612-18.938-5.2625-0.6375 0.425-3.0375 2.75 1.2375 2.7875 4.2625 0.05 8.0875 0.5375 8.9 3.275 0.825 2.725 0.0375 10.925-4.7125 10.45-4.7625-0.4625-8.65-1.9625-7.925 0.8125 0.7125 2.775 8.425 7.9875 17.162 4.75 4.9-0.925 7.0125-0.4125 9.9125 0.95 0.9 2.2125 2.9 3.9125 5.425 4.3125 0.4375 0.075 0.875 0.1 1.3 0.075h0.0375c0.15 0 0.3125-0.0125 0.4625-0.0375 2.5375-0.225 4.75-1.8375 5.775-4.1875l21.788-5.175-4.95 17.062h13.55l4.1375-19.462c1.2125-1.05 2.0625-2.5125 2.3375-4.2125 0.6125-3.85-2.025-7.475-5.8625-8.075"/>
<path d="m234.48 493.75c-0.1875 0.5375-0.575 1.0125-1.1125 1.325-0.875 0.5-1.9375 0.4125-2.7-0.15-0.1375-0.0875-0.25-0.2-0.3625-0.3125-0.1375-0.1375-0.25-0.3-0.35-0.475-0.1125-0.2-0.2-0.4-0.25-0.6-0.275-1.075 0.1875-2.2375 1.1875-2.8125 0.1875-0.1125 0.4-0.1875 0.6-0.25 0.7375-0.1875 1.5125-0.0375 2.1 0.4 0.2875 0.2 0.525 0.4625 0.7125 0.7875 0.375 0.6625 0.4125 1.425 0.175 2.0875m-31.688-20.775c-1.2 0.6875-2.7375 0.2625-3.4125-0.9375-0.6875-1.2-0.2625-2.725 0.9375-3.4125s2.725-0.2625 3.4125 0.9375c0.675 1.2 0.2625 2.725-0.9375 3.4125m40.95 31.7c-3.7875-3.25-4.7125-5.2125-5.45-8.3375 1.15-2.075 1.2375-4.7-0.025-6.925-1.625-2.85-4.95-4.1375-7.975-3.325l-11.325-8.8375h-5.275v-4.1125l-1.05-0.825 1.05-0.4375v-13.475l-10.875 5.4625c-1.575-0.2875-3.2625-0.05-4.7625 0.8-3.375 1.925-4.5625 6.25-2.6375 9.625 1.375 2.4125 3.95 3.7 6.5375 3.55l23.138 15.462c0.0125 0.25 0.0375 0.4875 0.0875 0.7375 0.1125 0.8 0.3875 1.6 0.8125 2.35 0.75 1.3 1.85 2.2875 3.1125 2.8875 0.5 4.5125 0.3 8.7375-1.175 12.575-4.6875 7.425-1.375 15.25 7.725 18.075 0.7375 0.225 4.05 0.6375 1.4125-2.7125-2.6375-3.3625-4.6375-6.6625-3.0125-9 1.6125-2.35 8.5125-6.85 11.112-2.85 2.6125 4.0125 3.8625 7.975 5.5875 5.6875 1.7125-2.2875 0.9625-11.562-7.0125-16.375"/>
<path d="m298.87 462.55c-0.0125 0.15-0.05 0.3125-0.0875 0.4625-0.0625 0.1875-0.1375 0.375-0.2375 0.55-0.7 1.1875-2.225 1.6-3.425 0.9-0.8-0.4625-1.25-1.3125-1.25-2.175 0-0.0875 0-0.1625 0.0125-0.2375 0.0375-0.3375 0.15-0.6875 0.325-1.0125 0.3875-0.65 1.025-1.075 1.7125-1.2 0.575-0.1 1.175-0.0125 1.7125 0.3 0.8 0.45 1.25 1.2875 1.25 2.15 0 0.0875 0 0.175-0.0125 0.2625m-4.0125 38.55c-0.7 1.2-2.225 1.6125-3.425 0.9125-1.2-0.6875-1.6-2.225-0.9125-3.425 0.7-1.1875 2.225-1.6 3.425-0.9 1.2 0.6875 1.6 2.225 0.9125 3.4125m31.725-60.5c-0.1625-0.7375-1.475-3.8125-3.05 0.15s-3.4125 7.3625-6.25 7.1375c-2.8375-0.2125-10.212-3.9-8.0625-8.175 2.15-4.2625 4.95-7.35 2.1-7.675-2.85-0.3375-10.488 4.9875-10.612 14.3-0.9 4.9-2.1375 6.7-4.45 8.9125-2.3875 0.0375-4.7 1.3-5.9875 3.5125-0.5625 0.975-0.8625 2.025-0.9375 3.075v0.6875c0.05 1.7875 0.7875 3.5125 2.0875 4.8l-3.0125 22.175-16.1-12.262h-1.85v5.95h-13.625l29.225 19.062c0.5375 1.5125 1.6 2.8375 3.0875 3.7 3.3625 1.95 7.7 0.8 9.65-2.5625 1.3875-2.4 1.2125-5.275-0.225-7.4375l1.7-27.762c0.8875-0.5875 1.65-1.375 2.2125-2.35 0.6375-1.1 0.95-2.3375 0.9375-3.55v-0.1875c0-0.1375 0-0.275-0.0125-0.4 3.65-2.7125 7.4-4.6625 11.45-5.325 8.7875 0.325 13.875-6.4875 11.725-15.775"/>
<path d="m248.12 451.72c0 0.8-0.65 1.4375-1.45 1.4375s-1.45-0.6375-1.45-1.4375v-3.725c0-0.8 0.65-1.45 1.45-1.45s1.45 0.65 1.45 1.45v3.725zm2.0625-4.55c0-0.8 0.65-1.45 1.45-1.45s1.45 0.65 1.45 1.45v5.375c0 0.8-0.65 1.4375-1.45 1.4375s-1.45-0.6375-1.45-1.4375v-5.375zm4.9625 0.825c0-0.8 0.65-1.45 1.45-1.45s1.45 0.65 1.45 1.45v3.725c0 0.8-0.65 1.4375-1.45 1.4375s-1.45-0.6375-1.45-1.4375v-3.725zm31.912 15.538v-3.175h-5.65v-14.35c0-4.1125-3-7.525-6.9375-8.1625v17.662l-3.6625 3.6625c0.4875 0.825 0.7625 1.8 0.7625 2.8375 0 3.1125-2.525 5.65-5.65 5.65-1.3625 0-2.6125-0.4875-3.5875-1.3-1.2625-1.025-2.0625-2.6-2.0625-4.35 0-0.775 0.1625-1.525 0.45-2.2 0.85-2.025 2.8625-3.45 5.2-3.45 1.0375 0 2.0125 0.275 2.8375 0.7625l2.8125-2.8125v-16.562h-39.888v16.562l2.8125 2.8125c0.8375-0.4875 1.8-0.7625 2.8375-0.7625 2.3875 0 4.4375 1.475 5.2625 3.575 0.25 0.6375 0.3875 1.3375 0.3875 2.075 0 3.1125-2.525 5.65-5.65 5.65-2.325 0-4.325-1.4125-5.175-3.4125-0.3125-0.6875-0.475-1.45-0.475-2.2375 0-1.0375 0.2875-2.0125 0.7625-2.8375l-3.65-3.6625v-17.662c-3.9375 0.6375-6.95 4.05-6.95 8.1625v14.35h-5.875v3.175h5.875v2.575h-5.875v3.175h5.875v2.5125h-5.875v3.1125l0.0875 0.0625h19.012v5.9375h33.125v-5.9375h18.862v-3.175h-5.65v-2.5125h5.65v-3.175h-5.65v-2.575h5.65z"/>
<path d="m335.81 468.74v-29.828h13.02v29.685c0 5.5075 2.5738 8.6562 8.0825 8.6562 5.5075 0 8.0825-3.1488 8.0825-8.6562v-29.685h13.019v29.828c0 13.091-8.9412 19.529-21.101 19.529-12.161 0-21.102-6.4375-21.102-19.529"/>
<path d="m398.18 463.31v24.249h-12.231v-49.285c0-0.42875 0.215-0.78625 1.0012-0.1425l30.544 25.179v-24.392h12.231v49.358c0 0.57125-0.215 0.78625-1.0012 0.1425l-30.544-25.108z"/>
<path d="m438.45 438.92h13.019v48.641h-13.019v-48.641z"/>
<path d="m483.15 488.2c-13.662 0-25.322-10.3-25.322-24.964 0-14.665 11.589-24.894 24.608-24.894 10.515 0 16.952 4.435 21.03 10.444l-9.8 6.6525c-1.86-2.8612-4.8638-5.7938-11.015-5.7938-7.1538 0-11.518 5.9375-11.518 13.591s4.5062 13.661 11.946 13.661c6.295 0 9.37-2.8612 11.445-6.7225l10.014 6.4375c-4.7925 8.0825-11.516 11.588-21.388 11.588"/>
<path d="m519.84 449.86h-12.875v-10.944h38.769v10.944h-12.875v37.698h-13.019v-37.698z"/>
<path d="m443.89 498h-5.905v-5.02h17.781v5.02h-5.905v17.289h-5.9712v-17.289z"/>
<path d="m461.74 492.98h15.649v5.02h-9.6775v3.6738h8.0688v4.7562h-8.0688v3.8388h10.136v5.0188h-16.108v-22.307z"/>
<path d="m491.49 508.27h4.035l-2.0338-4.7238-2.0012 4.7238zm5.9375 4.33h-7.775l-1.115 2.69h-5.84l10.859-22.7c0.0987-0.23 0.29625-0.23 0.39375 0l10.825 22.7h-6.1675l-1.18-2.69z"/>
<path d="m511.01 492.76c0.0325-0.23 0.16375-0.1975 0.295-0.0325l10.695 12.006 10.53-12.006c0.13125-0.165 0.2625-0.1975 0.295 0.0325l1.3125 22.536h-5.8725l-0.525-9.5138-5.5762 6.4625c-0.0987 0.0987-0.1975 0.0987-0.295 0l-5.8075-6.4938-0.525 9.545h-5.8388l1.3125-22.536z"/>
<path d="m335.45 498.01h95.328v-4.9925h-95.328v4.9925z"/>
<path d="m381.26 515.29h49.518v-4.9925h-49.518v4.9925z"/>
<path d="m358.69 506.65h72.089v-4.9938h-72.089v4.9938z"/>
</g>
</svg>
