<?xml version="1.0" encoding="UTF-8" standalone="no"?>
<!-- Created with Inkscape (http://www.inkscape.org/) -->

<svg
   xmlns:dc="http://purl.org/dc/elements/1.1/"
   xmlns:cc="http://creativecommons.org/ns#"
   xmlns:rdf="http://www.w3.org/1999/02/22-rdf-syntax-ns#"
   xmlns:svg="http://www.w3.org/2000/svg"
   xmlns="http://www.w3.org/2000/svg"
   version="1.1"
   width="744.09448"
   height="1052.3622"
   id="svg11243">
  <defs
     id="defs11245" />
  <metadata
     id="metadata11248">
    <rdf:RDF>
      <cc:Work
         rdf:about="">
        <dc:format>image/svg+xml</dc:format>
        <dc:type
           rdf:resource="http://purl.org/dc/dcmitype/StillImage" />
        <dc:title></dc:title>
      </cc:Work>
    </rdf:RDF>
  </metadata>
  <g
     id="layer1">
    <path
       d="m 263.9323,411.07003 c -0.2125,1.375 -1.5,2.3 -2.8625,2.0875 -1.3625,-0.2125 -2.3,-1.5 -2.075,-2.8625 0.2125,-1.3625 1.5,-2.3 2.8625,-2.0875 1.3625,0.225 2.3,1.5 2.075,2.8625 m -36.35,10.0875 c -0.1625,1 -0.8875,1.7625 -1.8125,2.0125 -0.1,0.0375 -0.2125,0.0625 -0.3125,0.075 -0.1125,0.0125 -0.225,0.025 -0.3375,0.025 -0.1375,0 -0.275,-0.0125 -0.4125,-0.0375 -0.75,-0.1125 -1.3625,-0.5625 -1.7375,-1.1625 -0.3,-0.4875 -0.4375,-1.0875 -0.3375,-1.7 0.1625,-1 0.8875,-1.7625 1.8,-2.025 0.1625,-0.0375 0.3125,-0.0625 0.475,-0.0875 l 0.1625,0 c 0.1375,0 0.275,0.0125 0.425,0.025 1.375,0.225 2.3,1.5 2.0875,2.875 m 34.9875,-17.43751 c -2.7375,-0.4375 -5.3625,0.7625 -6.8625,2.875 l -26.5125,8.41251 c -0.8625,-0.6125 -1.875,-1.0375 -2.9875,-1.2125 -0.425,-0.0625 -0.8375,-0.0875 -1.2625,-0.0625 -0.05,-0.0125 -0.1125,0 -0.1625,0 -0.975,0.025 -1.9125,0.275 -2.7625,0.6875 -3.85,-2.425 -7.0125,-5.225 -9.0875,-8.76251 -2.875,-8.3125 -11.0625,-10.6125 -18.9375,-5.2625 -0.6375,0.425 -3.0375,2.75 1.2375,2.7875 4.2625,0.05 8.0875,0.5375 8.9,3.275 0.825,2.72501 0.0375,10.92501 -4.7125,10.45001 -4.7625,-0.4625 -8.65,-1.9625 -7.925,0.8125 0.7125,2.775 8.425,7.9875 17.1625,4.75 4.9,-0.925 7.0125,-0.4125 9.9125,0.95 0.9,2.2125 2.9,3.9125 5.425,4.3125 0.4375,0.075 0.875,0.1 1.3,0.075 l 0.0375,0 c 0.15,0 0.3125,-0.0125 0.4625,-0.0375 2.5375,-0.225 4.75,-1.8375 5.775,-4.1875 l 21.7875,-5.175 -4.95,17.0625 13.55,0 4.1375,-19.4625 c 1.2125,-1.05 2.0625,-2.5125 2.3375,-4.2125 0.6125,-3.85 -2.025,-7.47501 -5.8625,-8.07501"
       id="path3106"
       style="fill:#231f20;fill-opacity:1;fill-rule:nonzero;stroke:none" />
    <path
       d="m 234.48218,493.74516 c -0.1875,0.5375 -0.575,1.0125 -1.1125,1.325 -0.875,0.5 -1.9375,0.4125 -2.7,-0.15 -0.1375,-0.0875 -0.25,-0.2 -0.3625,-0.3125 -0.1375,-0.1375 -0.25,-0.3 -0.35,-0.475 -0.1125,-0.2 -0.2,-0.4 -0.25,-0.6 -0.275,-1.075 0.1875,-2.2375 1.1875,-2.8125 0.1875,-0.1125 0.4,-0.1875 0.6,-0.25 0.7375,-0.1875 1.5125,-0.0375 2.1,0.4 0.2875,0.2 0.525,0.4625 0.7125,0.7875 0.375,0.6625 0.4125,1.425 0.175,2.0875 m -31.6875,-20.775 c -1.2,0.6875 -2.7375,0.2625 -3.4125,-0.9375 -0.6875,-1.2 -0.2625,-2.725 0.9375,-3.4125 1.2,-0.6875 2.725,-0.2625 3.4125,0.9375 0.675,1.2 0.2625,2.725 -0.9375,3.4125 m 40.95,31.69999 c -3.7875,-3.25 -4.7125,-5.2125 -5.45,-8.33749 1.15,-2.075 1.2375,-4.7 -0.025,-6.925 -1.625,-2.85 -4.95,-4.1375 -7.975,-3.325 l -11.325,-8.8375 -5.275,0 0,-4.1125 -1.05,-0.825 1.05,-0.4375 0,-13.475 -10.875,5.4625 c -1.575,-0.2875 -3.2625,-0.05 -4.7625,0.8 -3.375,1.925 -4.5625,6.25 -2.6375,9.625 1.375,2.4125 3.95,3.7 6.5375,3.55 l 23.1375,15.4625 c 0.0125,0.25 0.0375,0.4875 0.0875,0.7375 0.1125,0.8 0.3875,1.6 0.8125,2.35 0.75,1.29999 1.85,2.28749 3.1125,2.88749 0.5,4.5125 0.3,8.7375 -1.175,12.575 -4.6875,7.425 -1.375,15.25 7.725,18.075 0.7375,0.225 4.05,0.6375 1.4125,-2.7125 -2.6375,-3.3625 -4.6375,-6.6625 -3.0125,-9 1.6125,-2.35 8.5125,-6.85 11.1125,-2.85 2.6125,4.0125 3.8625,7.975 5.5875,5.6875 1.7125,-2.2875 0.9625,-11.5625 -7.0125,-16.375"
       id="path3114"
       style="fill:#231f20;fill-opacity:1;fill-rule:nonzero;stroke:none" />
    <path
       d="m 298.86943,462.54515 c -0.0125,0.15 -0.05,0.3125 -0.0875,0.4625 -0.0625,0.1875 -0.1375,0.375 -0.2375,0.55 -0.7,1.1875 -2.225,1.6 -3.425,0.9 -0.8,-0.4625 -1.25,-1.3125 -1.25,-2.175 0,-0.0875 0,-0.1625 0.0125,-0.2375 0.0375,-0.3375 0.15,-0.6875 0.325,-1.0125 0.3875,-0.65 1.025,-1.075 1.7125,-1.2 0.575,-0.1 1.175,-0.0125 1.7125,0.3 0.8,0.45 1.25,1.2875 1.25,2.15 0,0.0875 0,0.175 -0.0125,0.2625 m -4.0125,38.54999 c -0.7,1.2 -2.225,1.6125 -3.425,0.9125 -1.2,-0.6875 -1.6,-2.225 -0.9125,-3.425 0.7,-1.18749 2.225,-1.59999 3.425,-0.9 1.2,0.6875 1.6,2.225 0.9125,3.4125 m 31.725,-60.49999 c -0.1625,-0.7375 -1.475,-3.8125 -3.05,0.15 -1.575,3.9625 -3.4125,7.3625 -6.25,7.1375 -2.8375,-0.2125 -10.2125,-3.9 -8.0625,-8.175 2.15,-4.2625 4.95,-7.35 2.1,-7.675 -2.85,-0.3375 -10.4875,4.9875 -10.6125,14.3 -0.9,4.9 -2.1375,6.7 -4.45,8.9125 -2.3875,0.0375 -4.7,1.3 -5.9875,3.5125 -0.5625,0.975 -0.8625,2.025 -0.9375,3.075 l 0,0.6875 c 0.05,1.7875 0.7875,3.5125 2.0875,4.8 l -3.0125,22.175 -16.1,-12.2625 -1.85,0 0,5.95 -13.625,0 29.225,19.06249 c 0.5375,1.5125 1.6,2.8375 3.0875,3.7 3.3625,1.95 7.7,0.8 9.65,-2.5625 1.3875,-2.4 1.2125,-5.275 -0.225,-7.43749 l 1.7,-27.7625 c 0.8875,-0.5875 1.65,-1.375 2.2125,-2.35 0.6375,-1.1 0.95,-2.3375 0.9375,-3.55 l 0,-0.1875 c 0,-0.1375 0,-0.275 -0.0125,-0.4 3.65,-2.7125 7.4,-4.6625 11.45,-5.325 8.7875,0.325 13.875,-6.4875 11.725,-15.775"
       id="path3118"
       style="fill:#231f20;fill-opacity:1;fill-rule:nonzero;stroke:none" />
    <path
       d="m 248.1193,451.72003 c 0,0.8 -0.65,1.4375 -1.45,1.4375 -0.8,0 -1.45,-0.6375 -1.45,-1.4375 l 0,-3.725 c 0,-0.8 0.65,-1.45 1.45,-1.45 0.8,0 1.45,0.65 1.45,1.45 l 0,3.725 z m 2.0625,-4.55 c 0,-0.8 0.65,-1.45 1.45,-1.45 0.8,0 1.45,0.65 1.45,1.45 l 0,5.375 c 0,0.8 -0.65,1.4375 -1.45,1.4375 -0.8,0 -1.45,-0.6375 -1.45,-1.4375 l 0,-5.375 z m 4.9625,0.825 c 0,-0.8 0.65,-1.45 1.45,-1.45 0.8,0 1.45,0.65 1.45,1.45 l 0,3.725 c 0,0.8 -0.65,1.4375 -1.45,1.4375 -0.8,0 -1.45,-0.6375 -1.45,-1.4375 l 0,-3.725 z m 31.9125,15.5375 0,-3.175 -5.65,0 0,-14.35 c 0,-4.1125 -3,-7.525 -6.9375,-8.1625 l 0,17.6625 -3.6625,3.6625 c 0.4875,0.825 0.7625,1.8 0.7625,2.8375 0,3.1125 -2.525,5.65 -5.65,5.65 -1.3625,0 -2.6125,-0.4875 -3.5875,-1.3 -1.2625,-1.025 -2.0625,-2.6 -2.0625,-4.35 0,-0.775 0.1625,-1.525 0.45,-2.2 0.85,-2.025 2.8625,-3.45 5.2,-3.45 1.0375,0 2.0125,0.275 2.8375,0.7625 l 2.8125,-2.8125 0,-16.5625 -39.8875,0 0,16.5625 2.8125,2.8125 c 0.8375,-0.4875 1.8,-0.7625 2.8375,-0.7625 2.3875,0 4.4375,1.475 5.2625,3.575 0.25,0.6375 0.3875,1.3375 0.3875,2.075 0,3.1125 -2.525,5.65 -5.65,5.65 -2.325,0 -4.325,-1.4125 -5.175,-3.4125 -0.3125,-0.6875 -0.475,-1.45 -0.475,-2.2375 0,-1.0375 0.2875,-2.0125 0.7625,-2.8375 l -3.65,-3.6625 0,-17.6625 c -3.9375,0.6375 -6.95,4.05 -6.95,8.1625 l 0,14.35 -5.875,0 0,3.175 5.875,0 0,2.575 -5.875,0 0,3.175 5.875,0 0,2.5125 -5.875,0 0,3.1125 0.0875,0.0625 19.0125,0 0,5.9375 33.125,0 0,-5.9375 18.8625,0 0,-3.175 -5.65,0 0,-2.5125 5.65,0 0,-3.175 -5.65,0 0,-2.575 5.65,0 z"
       id="path3122"
       style="fill:#231f20;fill-opacity:1;fill-rule:nonzero;stroke:none" />
    <path
       d="m 335.8103,468.74453 0,-29.8275 13.02,0 0,29.685 c 0,5.5075 2.57375,8.65625 8.0825,8.65625 5.5075,0 8.0825,-3.14875 8.0825,-8.65625 l 0,-29.685 13.01875,0 0,29.8275 c 0,13.09125 -8.94125,19.52875 -21.10125,19.52875 -12.16125,0 -21.1025,-6.4375 -21.1025,-19.52875"
       id="path3126"
       style="fill:#231f20;fill-opacity:1;fill-rule:nonzero;stroke:none" />
    <path
       d="m 398.17968,463.30878 0,24.24875 -12.23125,0 0,-49.285 c 0,-0.42875 0.215,-0.78625 1.00125,-0.1425 l 30.54375,25.17875 0,-24.3925 12.23125,0 0,49.3575 c 0,0.57125 -0.215,0.78625 -1.00125,0.1425 l -30.54375,-25.1075 z"
       id="path3130"
       style="fill:#231f20;fill-opacity:1;fill-rule:nonzero;stroke:none" />
    <path
       d="m 438.44655,438.91716 13.01875,0 0,48.64125 -13.01875,0 0,-48.64125 z"
       id="path3132"
       style="fill:#231f20;fill-opacity:1;fill-rule:nonzero;stroke:none" />
    <path
       d="m 483.15155,488.20128 c -13.6625,0 -25.3225,-10.3 -25.3225,-24.96375 0,-14.665 11.58875,-24.89375 24.6075,-24.89375 10.515,0 16.9525,4.435 21.03,10.44375 l -9.8,6.6525 c -1.86,-2.86125 -4.86375,-5.79375 -11.015,-5.79375 -7.15375,0 -11.5175,5.9375 -11.5175,13.59125 0,7.65375 4.50625,13.66125 11.94625,13.66125 6.295,0 9.37,-2.86125 11.445,-6.7225 l 10.01375,6.4375 c -4.7925,8.0825 -11.51625,11.5875 -21.3875,11.5875"
       id="path3136"
       style="fill:#231f20;fill-opacity:1;fill-rule:nonzero;stroke:none" />
    <path
       d="m 519.84168,449.86091 -12.875,0 0,-10.94375 38.76875,0 0,10.94375 -12.875,0 0,37.6975 -13.01875,0 0,-37.6975 z"
       id="path3140"
       style="fill:#231f20;fill-opacity:1;fill-rule:nonzero;stroke:none" />
    <path
       d="m 443.88955,498.00352 -5.905,0 0,-5.01999 17.78125,0 0,5.01999 -5.905,0 0,17.28875 -5.97125,0 0,-17.28875 z"
       id="path3144"
       style="fill:#231f20;fill-opacity:1;fill-rule:nonzero;stroke:none" />
    <path
       d="m 461.7368,492.98403 15.64875,0 0,5.01999 -9.6775,0 0,3.67375 8.06875,0 0,4.75625 -8.06875,0 0,3.83875 10.13625,0 0,5.01875 -16.1075,0 0,-22.30749 z"
       id="path3148"
       style="fill:#231f20;fill-opacity:1;fill-rule:nonzero;stroke:none" />
    <path
       d="m 491.49268,508.27152 4.035,0 -2.03375,-4.72375 -2.00125,4.72375 z m 5.9375,4.33 -7.775,0 -1.115,2.69 -5.84,0 10.85875,-22.69999 c 0.0987,-0.23 0.29625,-0.23 0.39375,0 l 10.825,22.69999 -6.1675,0 -1.18,-2.69 z"
       id="path3152"
       style="fill:#231f20;fill-opacity:1;fill-rule:nonzero;stroke:none" />
    <path
       d="m 511.01293,492.75515 c 0.0325,-0.23 0.16375,-0.1975 0.295,-0.0325 l 10.695,12.00624 10.53,-12.00624 c 0.13125,-0.165 0.2625,-0.1975 0.295,0.0325 l 1.3125,22.53624 -5.8725,0 -0.525,-9.51375 -5.57625,6.4625 c -0.0987,0.0987 -0.1975,0.0987 -0.295,0 l -5.8075,-6.49375 -0.525,9.545 -5.83875,0 1.3125,-22.53624 z"
       id="path3156"
       style="fill:#231f20;fill-opacity:1;fill-rule:nonzero;stroke:none" />
    <path
       d="m 335.45405,498.01215 95.3275,0 0,-4.99249 -95.3275,0 0,4.99249 z"
       id="path3158"
       style="fill:#231f20;fill-opacity:1;fill-rule:nonzero;stroke:none" />
    <path
       d="m 381.26405,515.29215 49.5175,0 0,-4.9925 -49.5175,0 0,4.9925 z"
       id="path3160"
       style="fill:#231f20;fill-opacity:1;fill-rule:nonzero;stroke:none" />
    <path
       d="m 358.6928,506.65215 72.08875,0 0,-4.99375 -72.08875,0 0,4.99375 z"
       id="path3162"
       style="fill:#231f20;fill-opacity:1;fill-rule:nonzero;stroke:none" />
  </g>
</svg>
